<svg width="99" height="29" viewBox="0 0 99 29" fill="none" xmlns="http://www.w3.org/2000/svg">
<path d="M13.221 24.202C13.221 23.334 13.3657 22.218 13.655 20.854C13.9443 19.49 14.3267 18.033 14.802 16.483C13.438 16.5863 12.0637 16.7207 10.679 16.886C9.315 17.0513 8.12667 17.1443 7.114 17.165C6.184 19.335 5.44 21.3397 4.882 23.179C4.34467 24.9977 3.921 26.775 3.611 28.511C2.82567 28.325 2.17467 27.9943 1.658 27.519C1.14133 27.0643 0.666 26.4857 0.232 25.783C0.397333 25.4523 0.583333 25.0287 0.79 24.512C1.01733 23.9953 1.27567 23.3753 1.565 22.652C1.875 21.908 2.216 21.0503 2.588 20.079C2.98067 19.087 3.425 17.94 3.921 16.638C3.239 16.3487 2.78433 15.9457 2.557 15.429C2.66033 15.3463 2.88767 15.2637 3.239 15.181C3.611 15.0777 4.06567 14.9743 4.603 14.871L5.006 13.879C5.44 12.763 5.79133 11.8227 6.06 11.058C6.34933 10.2933 6.587 9.54933 6.773 8.826C6.97967 8.082 7.16567 7.26567 7.331 6.377C7.517 5.48833 7.734 4.362 7.982 2.998C8.85 3.16333 9.63533 3.54567 10.338 4.145C11.0613 4.74433 11.6813 5.46766 12.198 6.315C12.012 6.563 11.7847 6.935 11.516 7.431C11.2473 7.927 10.9477 8.52633 10.617 9.229C10.307 9.911 9.966 10.686 9.594 11.554C9.222 12.4013 8.819 13.3003 8.385 14.251C9.66633 14.0857 10.958 13.9307 12.26 13.786C13.5827 13.6413 14.7503 13.538 15.763 13.476C16.135 12.4013 16.5173 11.3577 16.91 10.345C17.3233 9.31167 17.7263 8.37133 18.119 7.524C18.5117 6.67667 18.8837 5.93267 19.235 5.292C19.607 4.65133 19.9377 4.176 20.227 3.866C20.4337 3.88666 20.7023 3.96933 21.033 4.114C21.3843 4.238 21.7357 4.393 22.087 4.579C22.4383 4.765 22.7587 4.97167 23.048 5.199C23.3373 5.40567 23.5337 5.602 23.637 5.788C23.265 6.13933 22.893 6.594 22.521 7.152C22.149 7.71 21.777 8.35067 21.405 9.074C21.0537 9.79733 20.7023 10.5827 20.351 11.43C19.9997 12.2773 19.669 13.1557 19.359 14.065C19.7723 14.437 19.979 14.902 19.979 15.46C19.979 15.8527 19.8963 16.2143 19.731 16.545C19.545 16.5037 19.359 16.483 19.173 16.483C18.987 16.4623 18.7907 16.4417 18.584 16.421C18.2327 17.537 17.9123 18.6427 17.623 19.738C17.3337 20.8333 17.0857 21.877 16.879 22.869C16.693 23.861 16.538 24.7703 16.414 25.597C16.3107 26.4237 16.259 27.116 16.259 27.674C16.259 27.8807 16.259 28.046 16.259 28.17C16.2797 28.294 16.3003 28.3973 16.321 28.48C15.8663 28.4593 15.5357 28.3767 15.329 28.232C15.1223 28.108 14.9673 27.9633 14.864 27.798C14.7607 27.6533 14.6677 27.4983 14.585 27.333C14.5023 27.1883 14.368 27.0747 14.182 26.992C14.0373 26.93 13.903 26.7853 13.779 26.558C13.655 26.3307 13.5517 26.0723 13.469 25.783C13.3863 25.4937 13.3243 25.2043 13.283 24.915C13.2417 24.6257 13.221 24.388 13.221 24.202ZM32.5974 13.166C32.5147 14.4473 32.2874 15.553 31.9154 16.483C31.5434 17.3923 31.006 18.1983 30.3034 18.901C29.6214 19.583 28.7844 20.203 27.7924 20.761C26.8004 21.319 25.643 21.8563 24.3204 22.373C24.3204 22.497 24.31 22.6313 24.2894 22.776C24.2894 22.9 24.2894 23.0343 24.2894 23.179C24.2894 23.4477 24.31 23.7267 24.3514 24.016C24.3927 24.3053 24.465 24.574 24.5684 24.822C24.6717 25.07 24.8164 25.2767 25.0024 25.442C25.1884 25.5867 25.426 25.659 25.7154 25.659C26.2734 25.659 26.821 25.535 27.3584 25.287C27.8957 25.039 28.402 24.7393 28.8774 24.388C29.3734 24.016 29.828 23.6233 30.2414 23.21C30.6754 22.776 31.0577 22.3833 31.3884 22.032C31.595 22.218 31.7707 22.3937 31.9154 22.559C30.9854 23.799 29.9624 24.8323 28.8464 25.659C27.751 26.465 26.7074 26.9817 25.7154 27.209C24.2894 27.0437 23.1734 26.527 22.3674 25.659C21.582 24.7703 21.1894 23.706 21.1894 22.466C21.1894 21.6187 21.303 20.761 21.5304 19.893C21.7784 19.0043 22.109 18.157 22.5224 17.351C22.9564 16.5243 23.4524 15.7493 24.0104 15.026C24.589 14.3027 25.1987 13.6723 25.8394 13.135C26.5007 12.5977 27.1724 12.174 27.8544 11.864C28.557 11.554 29.2494 11.399 29.9314 11.399C30.882 11.523 31.7707 12.112 32.5974 13.166ZM30.4584 14.189C29.9004 14.2717 29.3217 14.499 28.7224 14.871C28.123 15.243 27.5547 15.739 27.0174 16.359C26.5007 16.979 26.0254 17.7023 25.5914 18.529C25.1574 19.3557 24.8164 20.2443 24.5684 21.195C26.2217 20.3683 27.596 19.3557 28.6914 18.157C29.7867 16.9377 30.3757 15.615 30.4584 14.189ZM39.3546 10.965C39.8919 11.1303 40.3983 11.5023 40.8736 12.081C41.3489 12.639 41.7003 13.259 41.9276 13.941C41.7003 14.499 41.3489 15.1707 40.8736 15.956C40.3983 16.7413 39.9229 17.5473 39.4476 18.374C38.9723 19.18 38.5383 19.955 38.1456 20.699C37.7736 21.4223 37.5566 22.0217 37.4946 22.497C37.8253 22.1457 38.1869 21.7427 38.5796 21.288C38.9929 20.8127 39.3856 20.3477 39.7576 19.893C40.1503 19.4177 40.5119 18.994 40.8426 18.622C41.1733 18.2293 41.4316 17.94 41.6176 17.754C42.0103 17.3407 42.4753 16.8653 43.0126 16.328C43.5499 15.77 44.1079 15.2533 44.6866 14.778C45.2859 14.282 45.8853 13.8687 46.4846 13.538C47.0839 13.1867 47.6316 13.011 48.1276 13.011C48.6649 13.011 49.1093 13.197 49.4606 13.569C49.8326 13.9203 50.1219 14.2923 50.3286 14.685C50.3286 14.7263 50.2459 14.7883 50.0806 14.871C49.9359 14.933 49.7189 15.1293 49.4296 15.46C49.1403 15.832 48.8096 16.3487 48.4376 17.01C48.0863 17.6507 47.7349 18.3533 47.3836 19.118C47.0529 19.862 46.7739 20.6267 46.5466 21.412C46.3193 22.1973 46.2056 22.9103 46.2056 23.551C46.2056 24.0677 46.2676 24.3983 46.3916 24.543C46.5363 24.6877 46.7326 24.76 46.9806 24.76C47.2079 24.76 47.4456 24.7083 47.6936 24.605C47.9416 24.5017 48.1379 24.45 48.2826 24.45C48.3653 24.4913 48.4273 24.5843 48.4686 24.729C48.5306 24.853 48.5616 24.9667 48.5616 25.07C48.3963 25.2147 48.1999 25.3593 47.9726 25.504C47.7453 25.6487 47.5076 25.783 47.2596 25.907C47.0116 26.031 46.7636 26.1343 46.5156 26.217C46.2883 26.2997 46.0816 26.341 45.8956 26.341C45.2963 26.341 44.8003 26.248 44.4076 26.062C44.0356 25.8967 43.7359 25.6693 43.5086 25.38C43.3019 25.0907 43.1573 24.7497 43.0746 24.357C42.9919 23.9437 42.9506 23.5097 42.9506 23.055C42.9506 22.807 42.9713 22.528 43.0126 22.218C43.0539 21.908 43.1366 21.5463 43.2606 21.133C43.3846 20.699 43.5603 20.1927 43.7876 19.614C44.0149 19.0147 44.3043 18.3017 44.6556 17.475C44.6143 17.475 44.3353 17.6197 43.8186 17.909C43.3019 18.1983 42.7439 18.6427 42.1446 19.242C41.1733 20.172 40.2949 21.0917 39.5096 22.001C38.7449 22.9103 37.9596 23.923 37.1536 25.039C36.6989 25.6797 36.2959 26.217 35.9446 26.651C35.6139 27.1057 35.3246 27.4053 35.0766 27.55C34.6426 27.302 34.3223 26.9507 34.1156 26.496C33.9089 26.062 33.7539 25.6073 33.6506 25.132C33.6506 24.7393 33.7023 24.2433 33.8056 23.644C33.9296 23.0447 34.0846 22.3833 34.2706 21.66C34.4773 20.916 34.7253 20.141 35.0146 19.335C35.3039 18.529 35.6243 17.723 35.9756 16.917C36.7609 15.0983 37.4739 13.6723 38.1146 12.639C38.7759 11.6057 39.1893 11.0477 39.3546 10.965ZM58.1318 11.523C58.5451 11.523 59.0205 11.647 59.5578 11.895C60.0951 12.143 60.5705 12.4633 60.9838 12.856C60.8805 12.0293 60.7461 11.2543 60.5808 10.531C60.4361 9.787 60.2088 9.02233 59.8988 8.237C59.6095 7.45167 59.2168 6.594 58.7208 5.664C58.2248 4.734 57.6048 3.66967 56.8608 2.471C56.9228 2.285 57.0571 2.068 57.2638 1.82C57.4911 1.572 57.7391 1.34467 58.0078 1.138C58.2971 0.910666 58.5865 0.714332 58.8758 0.548999C59.1858 0.383665 59.4751 0.280332 59.7438 0.238999C60.3225 0.879666 60.8701 1.68567 61.3868 2.657C61.9035 3.60767 62.3581 4.641 62.7508 5.757C63.1435 6.85233 63.4431 7.989 63.6498 9.167C63.8771 10.345 63.9908 11.4713 63.9908 12.546C63.9908 13.6207 63.8668 14.7263 63.6188 15.863C63.3915 16.9997 63.0608 18.1157 62.6268 19.211C62.2135 20.2857 61.7278 21.3087 61.1698 22.28C60.6118 23.2513 60.0021 24.1193 59.3408 24.884C58.7001 25.6487 58.0285 26.2687 57.3258 26.744C56.6231 27.24 55.9205 27.55 55.2178 27.674C53.7918 27.5087 52.6965 27.0437 51.9318 26.279C51.1878 25.535 50.8158 24.5017 50.8158 23.179C50.8158 22.4763 50.9191 21.7117 51.1258 20.885C51.3531 20.0583 51.6425 19.242 51.9938 18.436C52.3658 17.6093 52.7895 16.8137 53.2648 16.049C53.7608 15.2637 54.2775 14.561 54.8148 13.941C55.3728 13.321 55.9308 12.794 56.4888 12.36C57.0468 11.926 57.5945 11.647 58.1318 11.523ZM54.9698 26.434C55.6931 26.186 56.4165 25.6383 57.1398 24.791C57.8631 23.9437 58.5141 22.9517 59.0928 21.815C59.6715 20.6577 60.1365 19.428 60.4878 18.126C60.8598 16.8033 61.0458 15.5323 61.0458 14.313C61.0458 13.9617 61.0458 13.7447 61.0458 13.662C61.0458 13.5793 61.0355 13.4967 61.0148 13.414C60.5188 13.6207 59.9918 13.972 59.4338 14.468C58.8758 14.964 58.3178 15.5427 57.7598 16.204C57.2018 16.8447 56.6748 17.5473 56.1788 18.312C55.6828 19.0767 55.2385 19.8413 54.8458 20.606C54.4531 21.3707 54.1431 22.1043 53.9158 22.807C53.6885 23.5097 53.5748 24.1297 53.5748 24.667C53.5748 25.7003 54.0398 26.2893 54.9698 26.434ZM64.3409 25.38C64.4443 24.7807 64.6199 23.9953 64.8679 23.024C65.1366 22.032 65.4466 20.9883 65.7979 19.893C66.1493 18.777 66.5213 17.661 66.9139 16.545C67.3066 15.429 67.6889 14.4267 68.0609 13.538C68.3296 12.8973 68.5673 12.4013 68.7739 12.05C68.9806 11.678 69.2079 11.368 69.4559 11.12C69.7453 11.1613 70.0449 11.2337 70.3549 11.337C70.6649 11.4403 70.9646 11.5643 71.2539 11.709C71.5433 11.8537 71.8016 12.0087 72.0289 12.174C72.2563 12.3187 72.4319 12.4633 72.5559 12.608C71.9979 13.2693 71.5019 14.0237 71.0679 14.871C70.6546 15.7183 70.2309 16.8033 69.7969 18.126C70.9129 17.134 71.8946 16.1833 72.7419 15.274C73.6099 14.3647 74.4159 13.352 75.1599 12.236C75.2839 12.1327 75.5009 12.081 75.8109 12.081C76.1003 12.081 76.3793 12.1327 76.6479 12.236C76.9166 12.3187 77.1026 12.4427 77.2059 12.608C76.8339 13.6 76.6479 14.5817 76.6479 15.553C76.6479 16.4623 76.7823 17.1443 77.0509 17.599C77.0303 17.723 76.8856 17.9607 76.6169 18.312C76.3689 18.6633 76.0899 18.994 75.7799 19.304C75.2219 19.0147 74.7259 18.622 74.2919 18.126C73.8579 17.6093 73.5376 17.0513 73.3309 16.452C72.3596 17.134 71.5329 17.8057 70.8509 18.467C70.1689 19.1077 69.5799 19.831 69.0839 20.637C68.6086 21.4223 68.1953 22.3317 67.8439 23.365C67.5133 24.3983 67.1929 25.628 66.8829 27.054C66.6969 27.0333 66.4696 26.961 66.2009 26.837C65.9529 26.7337 65.6946 26.5993 65.4259 26.434C65.1779 26.2687 64.9506 26.093 64.7439 25.907C64.5373 25.721 64.4029 25.5453 64.3409 25.38ZM77.9189 23.923C77.9189 23.737 77.9292 23.5097 77.9499 23.241C77.9912 22.9517 78.0532 22.5797 78.1359 22.125C78.2185 21.6497 78.3219 21.0813 78.4459 20.42C78.5905 19.7587 78.7662 18.963 78.9729 18.033C79.0142 17.8263 79.1072 17.4957 79.2519 17.041C79.3965 16.5863 79.5825 16.111 79.8099 15.615C80.0579 15.0983 80.3472 14.6023 80.6779 14.127C81.0292 13.6517 81.4425 13.3003 81.9179 13.073C82.2692 13.1557 82.7342 13.3727 83.3129 13.724C83.8915 14.0547 84.3875 14.5197 84.8009 15.119C84.3255 15.6563 83.9225 16.1937 83.5919 16.731C83.2819 17.2683 82.9925 17.8263 82.7239 18.405C82.4759 18.9837 82.2382 19.583 82.0109 20.203C81.8042 20.823 81.5665 21.474 81.2979 22.156C81.0705 22.7347 80.8639 23.334 80.6779 23.954C80.4919 24.5533 80.3885 25.0803 80.3679 25.535C80.3679 25.907 80.3575 26.1653 80.3369 26.31C80.3369 26.4753 80.2852 26.558 80.1819 26.558C80.0992 26.558 79.9339 26.5063 79.6859 26.403C79.4379 26.2997 79.1795 26.1447 78.9109 25.938C78.6629 25.7107 78.4355 25.4317 78.2289 25.101C78.0222 24.7703 77.9189 24.3777 77.9189 23.923ZM83.8399 10.469C83.8399 10.345 83.8709 10.159 83.9329 9.911C83.8295 9.80767 83.7365 9.65267 83.6539 9.446C83.5919 9.23933 83.5609 9.05333 83.5609 8.888C83.5609 8.702 83.5815 8.454 83.6229 8.144C83.6849 7.81333 83.7572 7.462 83.8399 7.09C83.9225 6.718 84.0259 6.33567 84.1499 5.943C84.2739 5.52967 84.3979 5.15767 84.5219 4.827C84.7699 4.827 85.0695 4.89933 85.4209 5.044C85.7929 5.168 86.1649 5.34367 86.5369 5.571C86.9089 5.77767 87.2499 6.01533 87.5599 6.284C87.8699 6.532 88.1075 6.76967 88.2729 6.997C88.0455 7.22433 87.7459 7.54467 87.3739 7.958C87.0019 8.35067 86.6402 8.77433 86.2889 9.229C85.9375 9.663 85.6172 10.0763 85.3279 10.469C85.0385 10.8617 84.8525 11.1407 84.7699 11.306C84.5219 11.2647 84.3049 11.1613 84.1189 10.996C83.9329 10.81 83.8399 10.6343 83.8399 10.469ZM95.155 25.814C94.9277 26.1653 94.566 26.4443 94.07 26.651C93.5947 26.8783 93.14 27.0127 92.706 27.054C92.3547 26.6407 91.962 26.0827 91.528 25.38C91.094 24.6567 90.6807 23.8197 90.288 22.869C89.234 23.8197 88.18 24.6877 87.126 25.473C86.072 26.2377 85.0904 26.8887 84.181 27.426C83.9537 27.3847 83.7677 27.2607 83.623 27.054C83.4784 26.8473 83.3957 26.5787 83.375 26.248C83.7884 26.0207 84.274 25.721 84.832 25.349C85.4107 24.977 85.9894 24.574 86.568 24.14C87.1674 23.6853 87.7357 23.2203 88.273 22.745C88.831 22.249 89.3064 21.7737 89.699 21.319C89.3477 20.4923 89.017 19.645 88.707 18.777C88.4177 17.8883 88.1594 17.041 87.932 16.235C87.7254 15.4083 87.56 14.6643 87.436 14.003C87.312 13.321 87.25 12.7733 87.25 12.36C87.25 12.0707 87.281 11.8847 87.343 11.802C87.4257 11.6987 87.6014 11.647 87.87 11.647C88.0767 11.647 88.3247 11.6677 88.614 11.709C88.924 11.7503 89.234 11.802 89.544 11.864C89.854 11.926 90.164 11.9983 90.474 12.081C90.784 12.143 91.0527 12.2153 91.28 12.298C91.2387 12.5253 91.218 12.7217 91.218 12.887C91.218 13.0523 91.218 13.29 91.218 13.6C91.218 14.406 91.28 15.2327 91.404 16.08C91.5487 16.9067 91.776 17.8057 92.086 18.777C92.9334 17.8057 93.7187 16.731 94.442 15.553C95.1654 14.3543 95.899 12.9283 96.643 11.275C97.1597 11.3783 97.604 11.5333 97.976 11.74C98.348 11.926 98.5857 12.1327 98.689 12.36C98.4617 13.3107 97.821 14.5093 96.767 15.956C95.713 17.4027 94.3697 18.9423 92.737 20.575C93.0264 21.3603 93.3777 22.1973 93.791 23.086C94.2044 23.954 94.659 24.8633 95.155 25.814Z" fill="white"/>
</svg>
